<svg xmlns="http://www.w3.org/2000/svg" viewBox="0 0 492.88 510.8"><defs><style>.cls-1{fill:#689536;}.cls-2{fill:#a5be1b;}.cls-3{fill:#689436;}.cls-4{fill:#447ba3;}.cls-5{fill:#447ca3;}.cls-6{fill:#457ca3;}.cls-7{fill:#437ba3;}.cls-8{fill:#eceef1;}.cls-9{fill:#447ca2;}</style></defs><g id="Layer_2" data-name="Layer 2"><g id="Layer_1-2" data-name="Layer 1"><path class="cls-1" d="M326.31,510.8c-6.81-3-13-6.68-16.51-13.75-5.47-11.05-2.55-23.46,7.52-31.25,2.84,1.64.63,3.7.24,5.36-3.36,14,3.73,26.12,17.55,29.69a22.55,22.55,0,0,0,12.21-.51c1.55-.45,3.54-2.22,5,.4-3.15,5.48-8.88,7.34-14,10.06Z"/><path class="cls-2" d="M400,349.08l-6.64,9.13c-11.26,9.75-24.73,15.41-38.44,20.5a172.52,172.52,0,0,1-72,10.55c-40.72-2.68-76.79-17.2-107.77-44-29.46-25.54-48.46-57.39-57.56-95.17a180.63,180.63,0,0,1-4.34-33.51,176,176,0,0,1,14.18-78.64c4.29-10.08,9-20,16.12-28.51a175.93,175.93,0,0,1,85-31.68l9.87-1a20.4,20.4,0,0,1,16,0C281.39,78.54,307,85,330.92,97.83c7.74,4.16,14.89,9.24,22.39,13.78,7.36,4.06,14.16,8.78,18.72,16.09,13.17,13.92,24.9,28.86,33.65,46a177,177,0,0,1,19.48,70.43c.08,1.31-.07,2.68.83,3.81,2.37,5.35,2.71,10.69-.07,16-1.09,8.16-2,16.35-3.31,24.46-2.58,15.57-7.89,30.3-14.22,44.69A30.38,30.38,0,0,1,400,349.08Z"/><path class="cls-3" d="M143.61,109.39c-.1,3.25-2.62,5.26-4.11,7.76a175.46,175.46,0,0,0-23.39,65.56,182,182,0,0,0,1,58.22A178.65,178.65,0,0,0,206,365.37a174.8,174.8,0,0,0,64.62,21.43,179.76,179.76,0,0,0,93.34-13c10.29-4.34,19.56-10.45,29.38-15.59-12.36,18.86-28.53,33.88-47,46.61-2.18,1.51-4.39,2.95-6.59,4.43-4.21,5-10,7.18-16.07,8.87-14.46,6-29.07,11.35-44.6,14.09a182.62,182.62,0,0,1-73.81-1.79,17.89,17.89,0,0,0-1.93-.26c-5.91.79-11-1.09-15.78-4.46-16.26-6.59-32-14.08-46.25-24.54a180.22,180.22,0,0,1-63.44-83.93,18.51,18.51,0,0,0-1.13-2.16C73.17,310.39,72,305,72,299.19c-1.06-6.85-2.22-13.68-3.15-20.54-4.92-36.34,1.38-70.8,17.63-103.53,2.27-4.58,4.82-9,7.23-13.52,2.29-6.25,5.64-11.75,11-15.86,10.14-12,20.95-23.35,33.59-32.81C140,111.66,141.82,110.56,143.61,109.39Z"/><path class="cls-4" d="M104.68,145.74l-11,15.86q-24.66,0-49.32,0c-7.91,0-10.49-2.53-10.49-10.37q0-33.63,0-67.26a39.48,39.48,0,0,1,15.84,0c0,19,.18,38.1,0,57.15,0,3.8,1.1,4.66,4.74,4.63C71.22,145.54,88,145.69,104.68,145.74Z"/><path class="cls-4" d="M400,349.08l8.37-16q28.68,0,57.36.09c7.89,0,10.43,2.53,10.43,10.44q0,29.18-.11,58.35a41.63,41.63,0,0,1-15.81-.14c0-16.1-.16-32.2,0-48.3,0-3.51-1-4.46-4.45-4.43C437.21,349.25,418.61,349.12,400,349.08Z"/><path class="cls-5" d="M425.92,264q0-8,.07-16c10,0,20-.1,29.93.16,3.7.1,4.33-1.37,4.32-4.65-.07-21.61.05-43.22.11-64.83,5.17-1.37,10.36-1,15.57-.3l.27,64.2c0,4,.05,8,0,12-.12,6.73-2.85,9.47-9.93,9.51C452.81,264.09,439.37,264,425.92,264Z"/><path class="cls-5" d="M187.63,425.7l15.78,4.46c0,14.94,0,29.89,0,44.83,0,8-2.79,10.79-10.8,10.79q-33.37,0-66.74-.09a35.77,35.77,0,0,1,.35-15.78c18.74,0,37.49-.17,56.23,0,3.79,0,5.13-.81,5.06-4.89C187.31,451.91,187.56,438.81,187.63,425.7Z"/><path class="cls-5" d="M72,299.19q2.42,7.94,4.85,15.88c-13.08,0-26.16.25-39.23,0-4.07-.07-4.87,1.29-4.84,5,.1,16.22-.11,32.44-.2,48.65-5.15.95-10.31,1.51-15.5.23-.07-20.6-.21-41.2-.15-61.8,0-5.26,3.1-8,8.71-8C41.05,299.12,56.5,299.18,72,299.19Z"/><path class="cls-4" d="M372,127.7l-18.72-16.09c17,0,33.92-.19,50.87,0,3.84,0,5.1-.86,5-4.91-.22-13,0-25.93.06-38.9,5.2-1.06,10.45-.94,15.71-.68,0,16.91.11,33.82.1,50.73,0,6.67-3,9.64-9.78,9.69C400.88,127.63,386.45,127.64,372,127.7Z"/><path class="cls-2" d="M352.29,500.74c-1-.88-1.94-.11-2.75.2-10.39,4-19.71,1.86-27.25-5.88s-8.92-17.32-4.82-27.48c.26-.64.44-1.23-.15-1.78l6.66-4c4.26-3.23,11.69-3.33,15.82-.19C359.11,469,361.31,489.68,352.29,500.74Z"/><path class="cls-2" d="M126.23,469.91a32.54,32.54,0,0,1-.35,15.78l-3.74,6.2c-11,7.47-27.93,2.93-34.91-9.39-5.13-9-4.91-18.64.59-25.72C98.51,448.31,118.86,450.57,126.23,469.91Z"/><path class="cls-2" d="M460.26,401.86a32.41,32.41,0,0,1,15.81.14c5,2.59,9.83,5.51,12.8,10.58,5.42,9.26,5.45,18.45-.53,27.51-9.13,8.61-30.09,4.39-36.7-11.67-3.12-7.58-3.17-15.2,1.27-22.46C455,403.88,457.87,403.34,460.26,401.86Z"/><path class="cls-2" d="M27,39.63c10.91-7.48,24.4-6.29,33,2.9,8.76,9.37,9.15,22.52,1,33.12-16,5.53-29.7.2-35.46-14.14C22.54,54.11,22.39,46.64,27,39.63Z"/><path class="cls-2" d="M232.5,4.8C243.9-2.62,256.63-1.36,265.35,8c8.53,9.18,9,22.14,1.12,32.67-17.18,7.37-34.45-2-37.48-20.35A20,20,0,0,1,232.5,4.8Z"/><path class="cls-2" d="M453.88,133.47c10.54-6.88,23.05-5.68,31.65,3,8.75,8.86,9.7,21.09,2.48,32.09-15.48,9.88-37.5-1.53-38.3-19.89C449.47,143.23,449.15,137.62,453.88,133.47Z"/><path class="cls-2" d="M402.13,22.86c11-7.21,23.39-6.18,32.2,2.69C442.82,34.1,444,46.63,437.21,57c-4.31,4.95-10.14,4.52-15.75,4.12C402.9,59.75,391.8,36.89,402.13,22.86Z"/><path class="cls-2" d="M17,369a31.65,31.65,0,0,1,15.5-.22c17.74,8.27,22.87,24.35,12.55,39.29-10.65,5.49-22.32,3.8-30.51-4.42s-9.79-19.85-4.45-30.57C12,371,14.86,370.55,17,369Z"/><path class="cls-6" d="M339.8,461.6a31.86,31.86,0,0,0-15.82.19q-.12-21.82-.23-43.67l16.07-8.87Q339.81,435.42,339.8,461.6Z"/><path class="cls-1" d="M402.13,22.86c-2.72,8.37-4.13,16.56.81,24.81a25.25,25.25,0,0,0,30.15,11c1.4-.51,2.75-1.16,4.12-1.74-2.49,5.29-7.34,7.73-12.23,10.13-5.16,2-10.42,1.63-15.71.68-8.44-3.86-15.07-9.34-17.19-19C389.81,38.44,393.35,29.15,402.13,22.86Z"/><path class="cls-1" d="M232.5,4.8c-1.65,6-3.4,11.94-1.8,18.33A25.23,25.23,0,0,0,260.91,41.3c1.75-.4,3.55-2,5.56-.59-2.83,4.62-7.72,6.42-12.16,8.84A13.48,13.48,0,0,1,238.57,49c-8.41-3.87-14.36-9.75-16.22-19.23A24.16,24.16,0,0,1,232.5,4.8Z"/><path class="cls-1" d="M453.88,133.47c-4.23,9.56-4.41,18.62,1.92,27.68,5.42,7.74,17.63,11.83,27.44,8.79,1.58-.49,3.18-.9,4.77-1.35-2.68,4.92-7.56,7.12-12.09,9.75a32.93,32.93,0,0,1-15.57.29c-5.28-2.74-10.38-5.59-13.76-10.87C439.16,156.15,442.41,140.45,453.88,133.47Z"/><path class="cls-1" d="M87.82,456.78c-2.64,7.11-4.33,14.21-1.14,21.68A25.23,25.23,0,0,0,117.83,493c1.41-.43,2.87-.72,4.31-1.08a24.61,24.61,0,0,1-34.21,6.2c-11.58-7.91-14.68-23.69-6.69-35C83,460.62,84.46,457.65,87.82,456.78Z"/><path class="cls-1" d="M27,39.63c-.07,3.79-1.92,7.16-2.16,11.06-1,16.51,15.65,30,31.59,25.11,1.41-.43,3-1.91,4.55-.15-2.64,4.24-7.14,6-11.22,8.26a33.4,33.4,0,0,1-15.84,0c-9.48-4.24-16.12-10.8-17.09-21.68C16,52.87,19.08,45.13,27,39.63Z"/><path class="cls-1" d="M10.13,373.07c.9,1.56-.23,2.85-.66,4.17-3.28,9.87-.75,18.66,6.25,25.62,7.22,7.18,16.33,9.05,26.22,5.64,1-.34,1.93-1.56,3.15-.44-6.27,8.58-15,11.51-25,9.51C9.61,415.46,2.73,408.56.6,398-1.43,388,1.67,379.36,10.13,373.07Z"/><path class="cls-1" d="M452.91,406c-1.13,6-3.1,11.87-1.39,18.07,4.18,15.2,19.32,22.81,34,17.07.92-.36,1.86-.68,2.8-1-6.06,9.36-15.11,12.38-25.44,10.57-10.13-1.77-17.1-8.37-19.48-18.39C440.93,421.79,443.76,412.57,452.91,406Z"/><path class="cls-7" d="M238.57,49c5.19,1.71,10.46,1.46,15.74.54q.09,13.56.17,27.12h-16Z"/><path class="cls-8" d="M148.16,244c.23-7.79,1.64-14.71,5.31-21s9.23-7.32,14.36-2.27q22.88,22.53,45.42,45.4c5.27,5.34,4.23,11-2.23,14.72-25.58,14.68-59.73-3.06-62.43-32.43C148.44,246.75,148.27,245.1,148.16,244Z"/><path class="cls-7" d="M310.69,196a29.94,29.94,0,0,1-30-29.61c-.14-15.94,13.35-29.61,29.37-29.74a29.68,29.68,0,1,1,.66,59.35Z"/><path class="cls-8" d="M344.71,241.47c-.62,34.32-34.17,54.43-62,39.73-7.43-3.93-8.43-9.58-2.54-15.52q22.1-22.26,44.35-44.35c5.9-5.85,11.69-4.81,15.53,2.61C343.35,230.25,344.85,237,344.71,241.47Z"/><path class="cls-9" d="M349.26,477a8.79,8.79,0,0,1-8.45,8.66,8.9,8.9,0,0,1-8.41-8.26c-.16-4.22,3.68-8.28,8-8.52A8.46,8.46,0,0,1,349.26,477Z"/><path class="cls-9" d="M110.4,476.93a8.49,8.49,0,0,1-8.29-8.17,8.61,8.61,0,0,1,8.57-8.47,8.45,8.45,0,0,1,8.15,8.29A8.07,8.07,0,0,1,110.4,476.93Z"/><path class="cls-9" d="M476.17,426a8.46,8.46,0,0,1,.25-16.91,8.81,8.81,0,0,1,8.31,8.81A8.9,8.9,0,0,1,476.17,426Z"/><path class="cls-9" d="M58.72,51a8.75,8.75,0,0,1-8,8.63A8.62,8.62,0,0,1,42,51.35a8.21,8.21,0,0,1,7.86-8.5A8.62,8.62,0,0,1,58.72,51Z"/><path class="cls-9" d="M255.79,8a8.25,8.25,0,0,1,7.91,9,8.17,8.17,0,0,1-8.4,7.92c-4.73-.15-8.13-4-7.92-8.9A8.33,8.33,0,0,1,255.79,8Z"/><path class="cls-9" d="M476.16,137.37a8.19,8.19,0,1,1,.27,16.37,8.19,8.19,0,1,1-.27-16.37Z"/><path class="cls-9" d="M433.27,34.81a8.17,8.17,0,0,1-16.34-.13,8.18,8.18,0,1,1,16.34.13Z"/><path class="cls-9" d="M42,384.56a8.58,8.58,0,0,1-8.18,8.32,8.7,8.7,0,0,1-8.51-8.59,8.59,8.59,0,0,1,8.33-8.21A8.15,8.15,0,0,1,42,384.56Z"/></g></g></svg>